<svg preserveAspectRatio="none" overflow="visible" style="display: block;" width="44.5287" height="40.4506" viewBox="0 0 44.5287 40.4506" fill="none" xmlns="http://www.w3.org/2000/svg">
<g id="Group">
<path id="Vector" fill-rule="evenodd" clip-rule="evenodd" d="M44.5287 20.5243C44.5287 23.2929 43.9827 25.9835 42.9166 28.5182C42.0065 30.6759 40.7324 32.6516 39.1463 34.3804C38.9382 34.6014 38.7302 34.8224 38.5222 35.0433C38.3272 35.2383 38.1322 35.4203 37.9372 35.6153C36.403 37.0321 34.6869 38.1889 32.8147 39.0858C32.5547 39.2158 32.2817 39.3328 32.0087 39.4497C31.9957 39.4497 31.9957 39.4627 31.9827 39.4627C30.4225 40.1256 28.7454 40.4506 27.0422 40.4506H0V34.4064H25.1051C32.6977 34.4064 38.9252 28.3362 39.0292 20.7452C39.0292 20.6802 39.0292 20.6153 39.0292 20.5503C39.0292 12.2574 32.2947 5.52426 24 5.52426C15.7053 5.49827 8.97075 12.2184 8.97075 20.5243H12.455L6.22752 29.2331L0 20.5243H3.48429C3.48429 17.7556 4.03034 15.065 5.09642 12.5303C6.13651 10.0867 7.60563 7.88995 9.49079 6.0052C11.3759 4.12045 13.5731 2.63865 16.0173 1.61179C18.5525 0.545927 21.2438 0 24.013 0C24.572 0 25.1181 0.0259965 25.6641 0.0649913C27.2763 0.194974 28.8494 0.506932 30.3835 1.01386C30.9296 1.19584 31.4626 1.39081 31.9957 1.62478C34.4399 2.66464 36.637 4.13345 38.5222 6.0182C40.4074 7.90295 41.8895 10.0997 42.9166 12.5433C43.9827 15.065 44.5287 17.7556 44.5287 20.5243Z" fill="white"/>
</g>
</svg>
